<?xml version="1.0" encoding="utf-8"?>
<!-- Generator: Adobe Illustrator 22.0.1, SVG Export Plug-In . SVG Version: 6.00 Build 0)  -->
<svg version="1.1" id="图层_1" xmlns="http://www.w3.org/2000/svg" xmlns:xlink="http://www.w3.org/1999/xlink" x="0px" y="0px"
	 viewBox="0 0 435.2 895.2" style="enable-background:new 0 0 435.2 895.2;" xml:space="preserve">
<style type="text/css">
	.st0{fill:#66B2FF;}
	.st1{fill:none;}
	.st2{fill:#BBDDFF;}
</style>
<path class="st0" d="M364.3,895.2H70.9C31.8,895.2,0,863.4,0,824.3V70.8C0,31.7,31.8-0.1,70.9-0.1h293.4c39.1,0,70.9,31.8,70.9,70.9
	v753.4C435.2,863.3,403.4,895.2,364.3,895.2z M70.9,0.7C32.2,0.7,0.8,32.2,0.8,70.8v753.4c0,38.7,31.5,70.1,70.1,70.1h293.4
	c38.7,0,70.1-31.5,70.1-70.1V70.8c0-38.7-31.5-70.1-70.1-70.1C364.3,0.7,70.9,0.7,70.9,0.7z"/>
<path class="st0" d="M406.6,790.9H22.5V108.3h384.1V790.9z M23.2,790.1h382.6V109H23.2V790.1z"/>
<path class="st1" d="M187.4,55c-2.5,0-4.6,2.1-4.6,4.6s2.1,4.6,4.6,4.6h60.3c2.5,0,4.6-2.1,4.6-4.6s-2.1-4.6-4.6-4.6H187.4z"/>
<rect x="162.4" y="34.5" class="st1" width="110.4" height="50.1"/>
<g>
	<path class="st2" d="M247.6,64.1h-59.9c-2.2,0-4-1.8-4-4v-0.2c0-2.2,1.8-4,4-4h59.9c2.2,0,4,1.8,4,4v0.2
		C251.6,62.3,249.8,64.1,247.6,64.1z"/>
	<path class="st0" d="M247.5,64.5h-59.8c-2.5,0-4.5-2-4.5-4.5s2-4.5,4.5-4.5h59.7c2.5,0,4.5,2,4.5,4.5S249.9,64.5,247.5,64.5z
		 M187.7,56.3c-2.1,0-3.7,1.7-3.7,3.7s1.7,3.7,3.7,3.7h59.7c2.1,0,3.7-1.7,3.7-3.7s-1.7-3.7-3.7-3.7H187.7z"/>
</g>
<g>
	<circle class="st2" cx="167.8" cy="60" r="5.5"/>
	<path class="st0" d="M167.8,65.8c-3.2,0-5.8-2.6-5.8-5.8s2.6-5.8,5.8-5.8s5.8,2.6,5.8,5.8C173.6,63.2,171.1,65.8,167.8,65.8z
		 M167.8,54.9c-2.8,0-5.1,2.3-5.1,5.1s2.3,5.1,5.1,5.1s5.1-2.3,5.1-5.1S170.6,54.9,167.8,54.9z"/>
</g>
<ellipse transform="matrix(0.4641 -0.8858 0.8858 0.4641 -623.9302 640.7924)" class="st2" cx="217.6" cy="836" rx="34.2" ry="34.2"/>
<path class="st0" d="M217.6,870.6c-19.1,0-34.6-15.5-34.6-34.6s15.5-34.6,34.6-34.6s34.6,15.5,34.6,34.6S236.7,870.6,217.6,870.6z
	 M217.6,802.1c-18.7,0-33.9,15.2-33.9,33.9s15.2,33.9,33.9,33.9s33.9-15.2,33.9-33.9S236.3,802.1,217.6,802.1z"/>
</svg>
