<?xml version="1.0" encoding="UTF-8"?>
<svg width="16px" height="13px" viewBox="0 0 16 13" version="1.1" xmlns="http://www.w3.org/2000/svg" xmlns:xlink="http://www.w3.org/1999/xlink">
    <!-- Generator: Sketch 50.2 (55047) - http://www.bohemiancoding.com/sketch -->
    <title>icon_top箭头</title>
    <desc>Created with Sketch.</desc>
    <defs></defs>
    <g id="最终稿-copy" stroke="none" stroke-width="1" fill="none" fill-rule="evenodd">
        <g id="关于我们-copy-2" transform="translate(-785.000000, -1355.000000)" fill-rule="nonzero">
            <g id="Group-12" transform="translate(0.000000, 1100.000000)">
                <g id="Group-3-Copy-2" transform="translate(618.000000, 238.000000)">
                    <g id="icon_top箭头" transform="translate(175.000000, 23.000000) rotate(-270.000000) translate(-175.000000, -23.000000) translate(167.000000, 15.000000)">
                        <rect id="Rectangle-path" fill="#000000" opacity="0" x="0" y="0" width="16" height="16"></rect>
                        <path d="M9.04921826,0.188081082 C8.91441159,0.0579029301 8.72749478,-0.00827703129 8.52396314,0.00154086724 L8.5103692,0.00226812427 L8.49677524,0.00154086724 C8.30188471,-0.0113127181 8.11058942,0.0567078242 7.97114251,0.188444702 L3.86312637,4.13015203 L3.66865735,4.32069212 L2.61550385,5.33120915 L2.23336282,5.69956243 C2.08509825,5.83973176 2.00109138,6.03110695 2,6.23118385 C2,6.41154242 2.07061301,6.57881044 2.19824511,6.70207969 C2.41348265,6.90861934 2.74351353,6.95152722 3.02936411,6.81334929 L7.81707774,2.21602404 L7.81707774,15.3363823 C7.81707774,15.7021902 8.12822815,16 8.5103692,16 C8.89251024,16 9.20328303,15.7021902 9.20328303,15.3363823 L9.20328303,2.21602404 L13.8811122,6.7049887 C14.1556345,6.91225561 14.5468382,6.88898353 14.7964382,6.64862666 C14.9264186,6.52399788 14.9996446,6.35473981 14.9999987,6.17810747 C15.0003528,6.00147514 14.9278059,5.83194607 14.7983263,5.70683496 L9.04921826,0.188081082 Z" id="Shape" fill="#FFFFFF"></path>
                    </g>
                </g>
            </g>
        </g>
    </g>
</svg>