<?xml version="1.0" encoding="UTF-8"?>
<svg width="12px" height="11px" viewBox="0 0 12 11" version="1.1" xmlns="http://www.w3.org/2000/svg" xmlns:xlink="http://www.w3.org/1999/xlink">
    <!-- Generator: Sketch 50.2 (55047) - http://www.bohemiancoding.com/sketch -->
    <title>回形针 copy</title>
    <desc>Created with Sketch.</desc>
    <defs></defs>
    <g id="最终稿-copy" stroke="none" stroke-width="1" fill="none" fill-rule="evenodd">
        <g id="提bug" transform="translate(-996.000000, -1839.000000)" fill-rule="nonzero">
            <g id="回形针-copy" transform="translate(994.000000, 1836.000000)">
                <rect id="Rectangle-path" fill="#000000" opacity="0" x="0" y="0" width="16" height="16"></rect>
                <path d="M12.7820572,3.93105658 L12.7324825,3.88148182 C12.1147047,3.2637041 11.2681204,2.95100179 10.3528942,3.00057655 C9.46817546,3.0501513 8.61777773,3.43149558 7.95423869,4.08359429 L7.93135803,4.10647495 L2.9967631,9.04106987 C2.55440374,9.48342923 2.31034341,10.0706994 2.31034341,10.6999175 C2.31034341,11.3253221 2.55440374,11.9125923 2.9967631,12.3587651 C3.43912246,12.8011244 4.02639265,13.0451848 4.6556107,13.0451848 C5.28101531,13.0451848 5.8682855,12.8011244 6.31064486,12.3587651 L11.2109188,7.500439 C11.2109188,7.500439 11.2109188,7.49662556 11.2147322,7.49662556 L11.2261726,7.48518523 C11.5617555,7.14578882 11.7257336,6.78351176 11.7181067,6.41360781 C11.7104798,6.08183829 11.565569,5.77294943 11.2833742,5.49075467 C11.0278735,5.21618679 10.6922906,5.06364908 10.333827,5.05602219 C9.96392302,5.04839531 9.59020563,5.20474646 9.31182431,5.48312778 L5.54795631,9.18216725 L6.21530879,9.86096007 L9.98299023,6.15429371 L9.98680368,6.15048026 C10.0821397,6.05514419 10.2041699,5.99794255 10.3185732,6.001756 C10.4177227,6.00556944 10.5092453,6.04751731 10.5931411,6.13522649 L10.6045814,6.15048026 C10.6770368,6.22293568 10.7609326,6.32971207 10.764746,6.42886158 C10.7685594,6.5280111 10.6884771,6.66529504 10.5397529,6.8140193 L5.63947893,11.6799723 C5.37635138,11.9430998 5.02932809,12.0880106 4.6556107,12.0880106 C4.28570675,12.0880106 3.93487002,11.9430998 3.67174247,11.6799723 C3.1302336,11.1384634 3.1302336,10.2575581 3.67174247,9.71604924 L8.6063374,4.78145431 C9.1058984,4.28189331 9.74274334,3.98825822 10.4062824,3.95393723 C11.0469408,3.91961625 11.6380244,4.13316904 12.0613165,4.55646119 L12.1108913,4.60603595 C12.5341834,5.02932809 12.7515497,5.61659828 12.7134152,6.2610701 C12.6790943,6.92460914 12.3854592,7.56145408 11.8858982,8.06101508 L8.24024689,11.7219201 L8.91522626,12.3930861 L12.5608775,8.73218101 C13.9413438,7.34790129 14.0443068,5.19330613 12.7820572,3.93105658 Z" id="Shape" fill="#8A94AC"></path>
            </g>
        </g>
    </g>
</svg>