<?xml version="1.0" standalone="no"?><!DOCTYPE svg PUBLIC "-//W3C//DTD SVG 1.1//EN" "http://www.w3.org/Graphics/SVG/1.1/DTD/svg11.dtd"><svg class="icon" width="200px" height="200.00px" viewBox="0 0 1024 1024" version="1.1" xmlns="http://www.w3.org/2000/svg"><path d="M764.39552 470.30272c-1.08544 4.5056-3.70688 11.07968-7.76192 19.7632-21.6064 45.99808-78.0288 136.21248-78.31552 135.63904l-16.50688 28.5696h79.4624l-151.7568 200.76544 34.46784-136.58112h-62.52544l21.7088-90.3168c-19.0464 5.3248-36.94592 11.63264-62.93504 17.89952 0 0-41.6768 14.0288-95.88736-37.33504 0 0-42.1888-36.98688-17.7152-46.22336 10.40384-3.93216 50.54464-8.92928 82.08384-13.16864 42.68032-5.7344 68.93568-8.78592 68.93568-8.78592s-131.54304 1.96608-162.75456-2.92864c-31.21152-4.87424-70.79936-56.68864-79.23712-102.23616 0 0-6.08256-22.9376 24.43264-14.1312 41.08288 11.8784 214.79424 47.04256 214.79424 47.04256s-221.20448-67.46112-235.9296-83.92704c-14.72512-16.46592-43.3152-89.86624-39.58784-134.9632 0 0 0.73728-12.92288 13.18912-8.23296 0 0 163.5328 74.36288 275.3536 115.07712 111.8208 40.69376 209.03936 61.37856 196.48512 114.0736M522.24 61.44C267.73504 61.44 61.44 267.73504 61.44 522.24S267.73504 983.04 522.24 983.04C776.72448 983.04 983.04 776.74496 983.04 522.24S776.72448 61.44 522.24 61.44" fill="#D8D8D8" /></svg>