<?xml version="1.0" encoding="UTF-8"?>
<svg width="78px" height="39px" viewBox="0 0 78 39" version="1.1" xmlns="http://www.w3.org/2000/svg" xmlns:xlink="http://www.w3.org/1999/xlink">
    <!-- Generator: Sketch 52.3 (67297) - http://www.bohemiancoding.com/sketch -->
    <title>TB1zBLaPXXXXXXeXXXXXXXXXXXX-121-59</title>
    <desc>Created with Sketch.</desc>
    <defs>
        <polygon id="path-1" points="38.5024785 38.2713752 38.5024785 0.156635915 0 0.156635915 0 38.2713752"></polygon>
        <polygon id="path-3" points="38.5024785 38.2713752 38.5024785 0.156635915 0 0.156635915 0 38.2713752"></polygon>
    </defs>
    <g id="weex" stroke="none" stroke-width="1" fill="none" fill-rule="evenodd">
        <g id="工具-1" transform="translate(-26.000000, -12.000000)">
            <g id="Group-5">
                <g id="TB1zBLaPXXXXXXeXXXXXXXXXXXX-121-59" transform="translate(26.000000, 12.000000)">
                    <path d="M40.0783352,21.721519 C40.2240214,21.721519 40.3703494,21.8143021 40.3908867,21.9613664 L40.8491245,26.3291139 C40.8696618,26.5310907 40.9325572,26.6787862 41.0159898,26.6787862 C41.0994225,26.6787862 41.1828551,26.5317219 41.2033924,26.3291139 L41.7039883,21.9613664 C41.7450628,21.8143021 41.8079582,21.721519 41.9542863,21.721519 L44.0786099,21.721519 C44.1832217,21.721519 44.3083706,21.8143021 44.3289079,21.9247581 L44.8705784,26.3291139 C44.8917574,26.5310907 44.954011,26.6787862 45.0374437,26.6787862 C45.1208763,26.6787862 45.204309,26.5317219 45.225488,26.3291139 L45.6426513,21.9424311 C45.661905,21.8143021 45.7466212,21.721519 45.8717702,21.721519 L49.2475837,21.721519 C49.4561653,21.721519 49.5184189,21.8326062 49.4978816,21.9803017 L47.5596769,35.2665857 C47.5384979,35.4508895 47.4133489,35.5430414 47.2888417,35.5430414 L44.2467588,35.5430414 C44.1252323,35.542468 44.0207651,35.4581686 43.9964609,35.3410647 L43.2038507,30.8805341 C43.1826716,30.716428 43.120418,30.5864054 43.0369854,30.5864054 C42.9535527,30.5864054 42.8912991,30.7341009 42.8701201,30.9001006 L42.1416888,35.3233917 C42.0999725,35.4521519 42.0370771,35.5443038 41.9125699,35.5443038 L38.8274872,35.5443038 C38.6846577,35.5428511 38.5627169,35.4424738 38.5361147,35.3044564 L36.5343728,21.9613664 C36.5131937,21.7953667 36.6178054,21.721519 36.7634917,21.721519 L40.0764098,21.721519 L40.0783352,21.721519 Z M50.4355363,21.9613664 C50.4355363,21.8509104 50.5606853,21.721519 50.7063715,21.721519 L58.1049224,21.721519 C58.2294296,21.721519 58.3128623,21.8136709 58.3128623,21.9247581 L58.3128623,25.2415953 C58.3128623,25.3520513 58.2088923,25.4258991 58.0837434,25.4258991 L54.6033182,25.4258991 C54.5198855,25.4258991 54.4576319,25.4808115 54.4576319,25.5540281 L54.4576319,26.5866343 C54.4576319,26.6592197 54.5410646,26.7147633 54.6033182,26.7147633 L58.1203254,26.7147633 C58.203758,26.7147633 58.2660116,26.7703069 58.2660116,26.8435235 L58.2660116,30.1976001 C58.2640343,30.2878375 58.19086,30.360909 58.0991463,30.364231 L54.5417064,30.364231 C54.4582737,30.364231 54.3953783,30.4197746 54.3953783,30.5119265 L54.3953783,31.5994451 C54.3953783,31.6732929 54.4576319,31.7288365 54.5198855,31.7288365 L58.1254597,31.7288365 C58.2711459,31.7288365 58.3552204,31.8209884 58.3552204,31.9131403 L58.3552204,35.3404335 C58.3552204,35.4515207 58.2506087,35.5424103 58.1254597,35.5424103 L50.6646552,35.5424103 C50.5395062,35.5424103 50.4355363,35.4325854 50.4355363,35.3038252 L50.4355363,21.9613664 Z M59.7093965,21.9613664 C59.7093965,21.8509104 59.8339037,21.721519 59.9802317,21.721519 L67.3781409,21.721519 C67.5026481,21.721519 67.5860807,21.8136709 67.5860807,21.9247581 L67.5860807,25.2415953 C67.5860807,25.3520513 67.481469,25.4258991 67.3569618,25.4258991 L63.8765366,25.4258991 C63.793104,25.4258991 63.7308504,25.4808115 63.7308504,25.5540281 L63.7308504,26.5866343 C63.7308504,26.6592197 63.814283,26.7147633 63.8765366,26.7147633 L67.3935438,26.7147633 C67.4769765,26.7147633 67.5392301,26.7703069 67.5392301,26.8435235 L67.5392301,30.1976001 C67.5372528,30.2878375 67.4640784,30.360909 67.3723648,30.364231 L63.814283,30.364231 C63.7308504,30.364231 63.6685968,30.4197746 63.6685968,30.5119265 L63.6685968,31.5994451 C63.6685968,31.6732929 63.7308504,31.7288365 63.793104,31.7288365 L67.3986781,31.7288365 C67.5443644,31.7288365 67.627797,31.8209884 67.627797,31.9131403 L67.627797,35.3404335 C67.627797,35.4515207 67.5225435,35.5424103 67.3980363,35.5424103 L59.9378736,35.5424103 C59.8133664,35.5424103 59.7087547,35.4325854 59.7087547,35.3038252 L59.7087547,21.9613664 L59.7093965,21.9613664 Z M70.962536,28.6139761 C70.9859702,28.5680649 71.0001367,28.5181231 71.0042523,28.4669117 C71.0042523,28.4290411 70.9830732,28.3375204 70.9618942,28.2826079 L68.585989,21.9247581 C68.5442726,21.8326062 68.585989,21.721519 68.7111379,21.721519 L72.524652,21.721519 C72.6080846,21.721519 72.6703382,21.7953667 72.6915173,21.8692145 L73.1702923,23.7861002 C73.1914714,23.859948 73.2325459,23.9154916 73.253725,23.9154916 C73.2954413,23.9154916 73.3371576,23.859948 73.3576949,23.7867314 L73.8371118,21.8704769 C73.8582908,21.778325 73.9205444,21.7227813 74.0039771,21.7227813 L77.8174911,21.7227813 C77.9009237,21.7227813 77.9843564,21.778325 77.9843564,21.8704769 C77.9843564,21.9070851 77.9843564,21.9443246 77.9638191,21.999237 L75.5879139,28.2100225 C75.5461976,28.2838703 75.5250185,28.4119993 75.5250185,28.4498699 C75.5250185,28.4864782 75.5461976,28.5969343 75.5667348,28.6518467 L77.9843564,35.36 C78.0260727,35.4893914 77.9843564,35.5443038 77.8592074,35.5443038 L73.982798,35.5443038 C73.9205444,35.5443038 73.8582908,35.4893914 73.8371118,35.4155436 L73.3576949,33.1496168 C73.3371576,33.0751379 73.2954413,33.0385296 73.2742622,33.0385296 C73.2325459,33.0385296 73.2120087,33.0751379 73.1908296,33.1489856 L72.7120545,35.4149124 C72.6908755,35.4893914 72.6074428,35.5443038 72.5240102,35.5443038 L68.6886753,35.5443038 C68.6052426,35.5443038 68.5641681,35.5076955 68.5641681,35.4521519 C68.5641681,35.4155436 68.5641681,35.3966083 68.5847054,35.36 L70.9606106,28.6152384 L70.962536,28.6139761 Z" id="Shape" fill="#515151" fill-rule="nonzero"></path>
                    <g id="Group">
                        <g id="Clipped">
                            <mask id="mask-2" fill="white">
                                <use xlink:href="#path-1"></use>
                            </mask>
                            <g id="a"></g>
                            <path d="M22.4171013,14.2682266 C21.4668893,14.2420836 20.7099483,13.4512059 20.7099483,12.4845351 C20.7099483,11.5178643 21.4668893,10.7269865 22.4171013,10.7008436 C23.3673132,10.7269865 24.1242542,11.5178643 24.1242542,12.4845351 C24.1242542,13.4512059 23.3673132,14.2420836 22.4171013,14.2682266 M35.6517266,7.53940871 C34.6207689,6.2594658 33.3662469,5.18414224 31.9512684,4.36753143 C22.4556076,-2.67847415 9.17092405,-0.676145033 2.08961013,8.81468612 C4.68686203,5.40393907 8.59332911,3.591531 12.559481,3.57129886 C5.15343038,6.98857241 0,14.5619189 0,23.3648573 C0,25.8253465 0.537163291,28.3426162 1.2790519,30.5472667 C2.34439367,29.563071 3.31539494,26.968136 4.45454051,26.0687848 C5.01288228,28.8555988 6.09362658,32.9457541 7.59023924,35.2339438 C8.98160127,32.3733804 10.1124038,30.3749672 12.1834025,28.018902 C12.748162,32.1305947 15.0745861,35.2319858 17.5730051,38.2720279 C17.423689,34.7675248 18.1148503,31.2786801 19.5868861,28.106357 C19.6870025,28.1559584 19.7877608,28.2042545 19.8898025,28.2525505 C21.5085494,31.3443113 23.8347007,33.9948417 26.6720506,35.980575 C25.7183772,33.9619296 25.1831392,31.7696795 24.8827899,29.4645209 C24.757654,28.5090842 24.6946235,27.5462942 24.6941089,26.5824201 C24.6941089,24.4789303 24.6299316,22.4459266 25.1780051,20.5219155 C25.4347139,19.6251749 25.5053089,18.7532349 25.8679101,17.907401 C26.0091,17.5791182 26.1567076,17.2547513 26.3139418,16.934953 C26.9903696,15.5513358 27.6918266,14.2284149 28.718662,12.9368213 C28.913119,12.691425 29.2333633,12.4505973 29.4374468,12.2136855 C30.3583899,11.2921442 32.1008013,10.722381 33.4960139,10.722381 C36.1420405,10.722381 38.2489785,12.6268127 38.5018367,15.2582961 C38.408138,12.1947586 37.4377785,9.75384896 35.6510848,7.53875606" id="Shape" fill="#00B4FF" fill-rule="nonzero" mask="url(#mask-2)"></path>
                        </g>
                        <g id="Clipped">
                            <mask id="mask-4" fill="white">
                                <use xlink:href="#path-3"></use>
                            </mask>
                            <g id="a"></g>
                            <path d="M23.0877532,11.3822098 C23.4752416,11.3819766 23.8334181,11.5919876 24.0273609,11.9331336 C24.2213037,12.2742795 24.2215483,12.6947323 24.0280026,13.0361115 C23.834457,13.3774906 23.4765252,13.5879325 23.0890367,13.5881656 C22.4900315,13.5885261 22.0041544,13.0949983 22.0038,12.4858404 C22.0034456,11.8766825 22.4887479,11.3825703 23.0877532,11.3822098" id="Shape" fill="#515151" fill-rule="nonzero" mask="url(#mask-4)"></path>
                        </g>
                    </g>
                </g>
            </g>
        </g>
    </g>
</svg>