<?xml version="1.0" encoding="UTF-8"?>
<svg width="10px" height="12px" viewBox="0 0 10 12" version="1.1" xmlns="http://www.w3.org/2000/svg" xmlns:xlink="http://www.w3.org/1999/xlink">
    <!-- Generator: Sketch 50.2 (55047) - http://www.bohemiancoding.com/sketch -->
    <title>地点</title>
    <desc>Created with Sketch.</desc>
    <defs></defs>
    <g id="weex" stroke="none" stroke-width="1" fill="none" fill-rule="evenodd">
        <g id="社区-线下活动" transform="translate(-304.000000, -429.000000)" fill-rule="nonzero">
            <g id="Group-9" transform="translate(284.000000, 144.000000)">
                <g id="地点" transform="translate(19.000000, 285.000000)">
                    <rect id="Rectangle-path" fill="#000000" opacity="0" x="0" y="0" width="12" height="12"></rect>
                    <path d="M6,12 C5.7375,12 5.5125,11.8875 5.3625,11.7 C5.25,11.55 5.1,11.3625 4.95,11.1375 C3.75,9.525 1.5,6.5625 1.5,4.3125 C1.5,1.95 3.525,0 6,0 C8.475,0 10.5,1.95 10.5,4.3125 C10.5,6.5625 8.25,9.525 7.05,11.1 C6.9,11.325 6.75,11.5125 6.6375,11.6625 C6.4875,11.8875 6.2625,12 6,12 Z M6,5.8125 C6.9375,5.8125 7.6875,5.0625 7.6875,4.125 C7.6875,3.1875 6.9375,2.4375 6,2.4375 C5.0625,2.4375 4.3125,3.1875 4.3125,4.125 C4.3125,5.0625 5.0625,5.8125 6,5.8125 Z" id="Combined-Shape" fill="#8A94AC"></path>
                </g>
            </g>
        </g>
    </g>
</svg>