<?xml version="1.0" encoding="UTF-8"?>
<svg width="24px" height="17px" viewBox="0 0 24 17" version="1.1" xmlns="http://www.w3.org/2000/svg" xmlns:xlink="http://www.w3.org/1999/xlink">
    <!-- Generator: Sketch 50.2 (55047) - http://www.bohemiancoding.com/sketch -->
    <title>new</title>
    <desc>Created with Sketch.</desc>
    <defs></defs>
    <g id="weex" stroke="none" stroke-width="1" fill="none" fill-rule="evenodd">
        <g id="社区-线下活动" transform="translate(-520.000000, -156.000000)" fill="#FF4000">
            <g id="Group-9" transform="translate(284.000000, 144.000000)">
                <path d="M253.360056,12.0192371 C249.72308,11.9924631 246.086013,11.9936565 242.449068,12.0226948 C239.158624,12.0489791 236.272513,14.7794647 236,18.0640337 L236.001561,18.6684827 L236.016738,28.2559493 C237.308222,27.5122756 238.479575,26.5906086 239.708791,25.7548631 C240.008078,25.5514421 240.296747,25.4640519 240.655916,25.4647863 C244.899116,25.4725584 249.14256,25.4877354 253.385514,25.4582075 C257.009302,25.4329941 260.001193,22.3600772 260,18.7256413 C259.998806,15.0993142 257.000459,12.0462253 253.360056,12.0192371 Z M243.682935,22.1770657 L242.728741,22.1770657 C241.606285,20.5309716 240.782748,19.3145462 240.259203,18.5287685 C240.05315,18.1736386 239.875524,17.8368374 239.726018,17.5185179 L239.697928,17.5185179 C239.754108,17.8552273 239.782075,18.2389059 239.782075,18.6690947 L239.782075,22.1770657 L238.855971,22.1770657 L238.855971,16.3678494 L239.838255,16.3678494 C240.941954,17.9955535 241.746611,19.2023097 242.251706,19.9880568 C242.457299,20.2875886 242.644595,20.6336306 242.813011,21.0265195 L242.813011,20.9984298 C242.775252,20.624298 242.756831,20.278409 242.756831,19.9600895 L242.756831,16.3678494 L243.682935,16.3678494 L243.682935,22.1770657 Z M249.492182,22.1770657 L244.94584,22.1770657 L244.94584,16.3397597 L249.351856,16.3397597 L249.351856,17.2097759 L245.900034,17.2097759 L245.900034,18.7533639 L249.155472,18.7533639 L249.155472,19.5951679 L245.900034,19.5951679 L245.900034,21.3633513 L249.492182,21.3633513 L249.492182,22.1770657 Z M256.115265,22.1770657 L255.245341,22.1770657 C254.477861,19.558021 254.075885,18.1828489 254.038615,18.0517329 C253.982436,17.9211066 253.954346,17.7149012 253.954346,17.4342488 L253.926379,17.4342488 C253.926379,17.5653953 253.898289,17.7710806 253.84211,18.0517329 C253.786053,18.1828489 253.355374,19.558021 252.551207,22.1770657 L251.681191,22.1770657 L249.997399,16.3678494 L251.007649,16.3678494 C251.643524,18.8190901 251.989902,20.1564727 252.046082,20.381068 C252.046082,20.3998251 252.055292,20.4279148 252.074049,20.4652148 C252.111349,20.7274466 252.130228,20.914283 252.130228,21.0265195 L252.158318,21.0265195 C252.158318,20.8208036 252.195496,20.6055409 252.270555,20.381068 C252.326612,20.2315316 252.728711,18.89369 253.477311,16.3678494 L254.431474,16.3678494 C255.123435,18.89369 255.497904,20.2315316 255.553961,20.381068 C255.62853,20.6055409 255.666197,20.8208036 255.666197,21.0265195 L255.694287,21.0265195 C255.694287,20.914283 255.712677,20.7274466 255.750466,20.4652148 C255.768856,20.4279148 255.778434,20.3998251 255.778434,20.381068 C255.834613,20.1564727 256.199412,18.8190901 256.873045,16.3678494 L257.883296,16.3678494 L256.115265,22.1770657 Z" id="new"></path>
            </g>
        </g>
    </g>
</svg>