<?xml version="1.0" encoding="UTF-8"?>
<svg width="16px" height="16px" viewBox="0 0 16 16" version="1.1" xmlns="http://www.w3.org/2000/svg" xmlns:xlink="http://www.w3.org/1999/xlink">
    <!-- Generator: Sketch 50.2 (55047) - http://www.bohemiancoding.com/sketch -->
    <title>感叹号@2x</title>
    <desc>Created with Sketch.</desc>
    <defs></defs>
    <g id="最终稿-copy" stroke="none" stroke-width="1" fill="none" fill-rule="evenodd">
        <g id="答疑机器人" transform="translate(-205.000000, -959.000000)" fill-rule="nonzero">
            <g id="感叹号" transform="translate(205.000000, 959.000000)">
                <rect id="Rectangle-path" fill="#000000" opacity="0" x="0" y="0" width="16" height="16"></rect>
                <path d="M8,16 C3.58175,16 0,12.41825 0,8 C0,3.58175 3.58175,0 8,0 C12.41825,0 16,3.58175 16,8 C16,12.41825 12.41825,16 8,16 Z M8.75,3.75 C8.75,3.33575 8.41425,3 8,3 C7.58575,3 7.25,3.33575 7.25,3.75 L7.25,9.25 C7.25,9.66425 7.58575,10 8,10 C8.41425,10 8.75,9.66425 8.75,9.25 L8.75,3.75 Z M8,11.5 C7.58575,11.5 7.25,11.83575 7.25,12.25 C7.25,12.66425 7.58575,13 8,13 C8.41425,13 8.75,12.66425 8.75,12.25 C8.75,11.83575 8.41425,11.5 8,11.5 Z" id="Shape" fill="#FF4000"></path>
            </g>
        </g>
    </g>
</svg>