<?xml version="1.0" encoding="utf-8"?>
<!-- Generator: Adobe Illustrator 22.0.1, SVG Export Plug-In . SVG Version: 6.00 Build 0)  -->
<svg version="1.1" id="图层_1" xmlns="http://www.w3.org/2000/svg" xmlns:xlink="http://www.w3.org/1999/xlink" x="0px" y="0px"
	 viewBox="0 0 1024 1024" style="enable-background:new 0 0 1024 1024;" xml:space="preserve">
<style type="text/css">
	.st0{fill:#A3ABBE;}
	.st1{fill:#FFFFFF;}
</style>
<g>
	<circle class="st0" cx="506.7" cy="512.2" r="448"/>
	<path class="st1" d="M744.9,360.2c34.2-37.7,0-113.2,0-113.2c-39.5-5.4-118.6,46.7-118.6,46.7c-97.1-23.4-226.5,0-226.5,0
		c-60.2-50.3-123.1-51.2-123.1-51.2c-43.1,61.1-5.4,119.5-5.4,119.5c-60.2,53.5-52.1,132.1-52.1,132.1
		C230,715.2,426.8,714.3,426.8,714.3c-21.6,8.1-42.2,62-42.2,62h-68.3c-22.5,1.8-51.2-51.2-51.2-51.2
		c-20.7-35.1-61.6-35.7-61.6-35.7c-25.1-0.2-25.7,6.6-21.5,12.6c3.3,4.6,15.6,10.4,18.5,12c31,15.9,52,75.8,52,75.8
		c18,44.9,66.5,46.7,66.5,46.7h80.9v110.7c34.3,8.4,70.1,12.9,106.9,12.9c38.8,0,76.4-4.9,112.3-14.2l-1.7-183.1
		c-1.8-32.4-34.2-52.1-34.2-52.1c221.1-9,210.3-212.1,210.3-212.1C795.2,419.6,744.9,360.2,744.9,360.2z"/>
</g>
</svg>
